HIERARCHY
ROOT mixamorig:Hips
{
	OFFSET 0.000000 77.714516 0.000000
	CHANNELS 6 Xposition Yposition Zposition Xrotation Yrotation Zrotation
	JOINT mixamorig:Spine
	{
		OFFSET 0.000000 14.685699 -1.734700
		CHANNELS 3 Xrotation Yrotation Zrotation
		JOINT mixamorig:Spine1
		{
			OFFSET 0.000000 17.133286 -2.023825
			CHANNELS 3 Xrotation Yrotation Zrotation
			JOINT mixamorig:Spine2
			{
				OFFSET 0.000000 19.580956 -2.312950
				CHANNELS 3 Xrotation Yrotation Zrotation
				JOINT mixamorig:Neck
				{
					OFFSET 0.000000 22.028564 -2.602067
					CHANNELS 3 Xrotation Yrotation Zrotation
					JOINT mixamorig:Head
					{
						OFFSET 0.000000 7.772293 1.167700
						CHANNELS 3 Xrotation Yrotation Zrotation
						JOINT mixamorig:HeadTop_End
						{
							OFFSET 0.000000 26.518204 3.983900
							CHANNELS 3 Xrotation Yrotation Zrotation
							End Site
							{
								OFFSET 0.000000 26.815781 0.000000
							}
						}
					}
				}
				JOINT mixamorig:LeftShoulder
				{
					OFFSET 11.646600 18.513336 -2.583780
					CHANNELS 3 Xrotation Yrotation Zrotation
					JOINT mixamorig:LeftArm
					{
						OFFSET 23.544209 -6.614426 0.036475
						CHANNELS 3 Xrotation Yrotation Zrotation
						JOINT mixamorig:LeftForeArm
						{
							OFFSET 22.756695 0.000000 -0.000001
							CHANNELS 3 Xrotation Yrotation Zrotation
							JOINT mixamorig:LeftHand
							{
								OFFSET 32.238304 0.000000 -0.000001
								CHANNELS 3 Xrotation Yrotation Zrotation
								JOINT mixamorig:LeftHandThumb1
								{
									OFFSET 4.391930 -2.771759 4.066533
									CHANNELS 3 Xrotation Yrotation Zrotation
									JOINT mixamorig:LeftHandThumb2
									{
										OFFSET 4.087418 -2.359879 2.359871
										CHANNELS 3 Xrotation Yrotation Zrotation
										JOINT mixamorig:LeftHandThumb3
										{
											OFFSET 4.044945 -2.335342 2.335349
											CHANNELS 3 Xrotation Yrotation Zrotation
											JOINT mixamorig:LeftHandThumb4
											{
												OFFSET 3.242561 -1.872101 1.872095
												CHANNELS 3 Xrotation Yrotation Zrotation
												End Site
												{
													OFFSET 2.876892 -1.863678 2.402885
												}
											}
										}
									}
								}
								JOINT mixamorig:LeftHandIndex1
								{
									OFFSET 13.080666 -0.495590 3.860911
									CHANNELS 3 Xrotation Yrotation Zrotation
									JOINT mixamorig:LeftHandIndex2
									{
										OFFSET 4.467804 0.000000 0.000000
										CHANNELS 3 Xrotation Yrotation Zrotation
										JOINT mixamorig:LeftHandIndex3
										{
											OFFSET 4.434097 0.000000 0.000000
											CHANNELS 3 Xrotation Yrotation Zrotation
											JOINT mixamorig:LeftHandIndex4
											{
												OFFSET 3.589699 0.000000 0.000000
												CHANNELS 3 Xrotation Yrotation Zrotation
												End Site
												{
													OFFSET 3.589706 0.000000 0.000200
												}
											}
										}
									}
								}
								JOINT mixamorig:LeftHandMiddle1
								{
									OFFSET 12.178093 0.000000 0.000000
									CHANNELS 3 Xrotation Yrotation Zrotation
									JOINT mixamorig:LeftHandMiddle2
									{
										OFFSET 5.491508 0.000000 0.000000
										CHANNELS 3 Xrotation Yrotation Zrotation
										JOINT mixamorig:LeftHandMiddle3
										{
											OFFSET 5.202805 0.000000 0.000000
											CHANNELS 3 Xrotation Yrotation Zrotation
											JOINT mixamorig:LeftHandMiddle4
											{
												OFFSET 4.456505 0.000000 0.000000
												CHANNELS 3 Xrotation Yrotation Zrotation
												End Site
												{
													OFFSET 4.456505 -0.000046 0.006499
												}
											}
										}
									}
								}
								JOINT mixamorig:LeftHandRing1
								{
									OFFSET 11.850945 -0.053970 -3.835439
									CHANNELS 3 Xrotation Yrotation Zrotation
									JOINT mixamorig:LeftHandRing2
									{
										OFFSET 4.691414 0.000000 0.000000
										CHANNELS 3 Xrotation Yrotation Zrotation
										JOINT mixamorig:LeftHandRing3
										{
											OFFSET 4.518303 0.000000 0.000000
											CHANNELS 3 Xrotation Yrotation Zrotation
											JOINT mixamorig:LeftHandRing4
											{
												OFFSET 3.568130 0.000000 0.000000
												CHANNELS 3 Xrotation Yrotation Zrotation
												End Site
												{
													OFFSET 3.568100 -0.000168 0.014599
												}
											}
										}
									}
								}
								JOINT mixamorig:LeftHandPinky1
								{
									OFFSET 10.491814 -0.458572 -7.033705
									CHANNELS 3 Xrotation Yrotation Zrotation
									JOINT mixamorig:LeftHandPinky2
									{
										OFFSET 4.452301 0.000000 0.000000
										CHANNELS 3 Xrotation Yrotation Zrotation
										JOINT mixamorig:LeftHandPinky3
										{
											OFFSET 3.536598 0.000000 0.000000
											CHANNELS 3 Xrotation Yrotation Zrotation
											JOINT mixamorig:LeftHandPinky4
											{
												OFFSET 2.823502 0.000000 0.000000
												CHANNELS 3 Xrotation Yrotation Zrotation
												End Site
												{
													OFFSET 2.823502 0.000000 0.000600
												}
											}
										}
									}
								}
							}
						}
					}
				}
				JOINT mixamorig:RightShoulder
				{
					OFFSET -11.646600 18.513351 -2.620334
					CHANNELS 3 Xrotation Yrotation Zrotation
					JOINT mixamorig:RightArm
					{
						OFFSET -23.544205 -6.614441 -0.036501
						CHANNELS 3 Xrotation Yrotation Zrotation
						JOINT mixamorig:RightForeArm
						{
							OFFSET -22.759399 0.000000 0.000001
							CHANNELS 3 Xrotation Yrotation Zrotation
							JOINT mixamorig:RightHand
							{
								OFFSET -32.238106 0.000000 0.000001
								CHANNELS 3 Xrotation Yrotation Zrotation
								JOINT mixamorig:RightHandThumb1
								{
									OFFSET -4.492897 -2.767944 4.026622
									CHANNELS 3 Xrotation Yrotation Zrotation
									JOINT mixamorig:RightHandThumb2
									{
										OFFSET -4.113335 -2.374832 2.374833
										CHANNELS 3 Xrotation Yrotation Zrotation
										JOINT mixamorig:RightHandThumb3
										{
											OFFSET -4.066299 -2.347672 2.347678
											CHANNELS 3 Xrotation Yrotation Zrotation
											JOINT mixamorig:RightHandThumb4
											{
												OFFSET -3.138756 -1.812164 1.812160
												CHANNELS 3 Xrotation Yrotation Zrotation
												End Site
												{
													OFFSET -2.613274 -1.789185 2.527684
												}
											}
										}
									}
								}
								JOINT mixamorig:RightHandIndex1
								{
									OFFSET -12.930191 -0.141510 3.700550
									CHANNELS 3 Xrotation Yrotation Zrotation
									JOINT mixamorig:RightHandIndex2
									{
										OFFSET -4.764015 0.000000 0.000000
										CHANNELS 3 Xrotation Yrotation Zrotation
										JOINT mixamorig:RightHandIndex3
										{
											OFFSET -4.419807 0.000000 0.000000
											CHANNELS 3 Xrotation Yrotation Zrotation
											JOINT mixamorig:RightHandIndex4
											{
												OFFSET -3.701851 0.000000 0.000000
												CHANNELS 3 Xrotation Yrotation Zrotation
												End Site
												{
													OFFSET -3.701797 0.000153 -0.018699
												}
											}
										}
									}
								}
								JOINT mixamorig:RightHandMiddle1
								{
									OFFSET -12.168388 0.000000 0.000001
									CHANNELS 3 Xrotation Yrotation Zrotation
									JOINT mixamorig:RightHandMiddle2
									{
										OFFSET -5.385834 0.000000 0.000000
										CHANNELS 3 Xrotation Yrotation Zrotation
										JOINT mixamorig:RightHandMiddle3
										{
											OFFSET -5.321609 0.000000 0.000000
											CHANNELS 3 Xrotation Yrotation Zrotation
											JOINT mixamorig:RightHandMiddle4
											{
												OFFSET -4.501015 0.000000 0.000000
												CHANNELS 3 Xrotation Yrotation Zrotation
												End Site
												{
													OFFSET -4.500992 -0.000168 0.011299
												}
											}
										}
									}
								}
								JOINT mixamorig:RightHandRing1
								{
									OFFSET -11.815239 0.302551 -3.905540
									CHANNELS 3 Xrotation Yrotation Zrotation
									JOINT mixamorig:RightHandRing2
									{
										OFFSET -4.583313 0.000000 0.000000
										CHANNELS 3 Xrotation Yrotation Zrotation
										JOINT mixamorig:RightHandRing3
										{
											OFFSET -4.612907 0.000000 0.000000
											CHANNELS 3 Xrotation Yrotation Zrotation
											JOINT mixamorig:RightHandRing4
											{
												OFFSET -3.358940 0.000000 0.000000
												CHANNELS 3 Xrotation Yrotation Zrotation
												End Site
												{
													OFFSET -3.358910 -0.000198 0.016799
												}
											}
										}
									}
								}
								JOINT mixamorig:RightHandPinky1
								{
									OFFSET -10.511444 -0.263382 -6.996516
									CHANNELS 3 Xrotation Yrotation Zrotation
									JOINT mixamorig:RightHandPinky2
									{
										OFFSET -4.477509 0.000000 0.000000
										CHANNELS 3 Xrotation Yrotation Zrotation
										JOINT mixamorig:RightHandPinky3
										{
											OFFSET -3.497902 0.000000 0.000000
											CHANNELS 3 Xrotation Yrotation Zrotation
											JOINT mixamorig:RightHandPinky4
											{
												OFFSET -2.797302 0.000000 0.000000
												CHANNELS 3 Xrotation Yrotation Zrotation
												End Site
												{
													OFFSET -2.797302 -0.000031 0.002200
												}
											}
										}
									}
								}
							}
						}
					}
				}
			}
		}
	}
	JOINT mixamorig:LeftUpLeg
	{
		OFFSET 13.580900 -8.149200 -1.796100
		CHANNELS 3 Xrotation Yrotation Zrotation
		JOINT mixamorig:LeftLeg
		{
			OFFSET 1.779603 -35.946629 -2.676069
			CHANNELS 3 Xrotation Yrotation Zrotation
			JOINT mixamorig:LeftFoot
			{
				OFFSET -1.779600 -26.652353 -2.057156
				CHANNELS 3 Xrotation Yrotation Zrotation
				JOINT mixamorig:LeftToeBase
				{
					OFFSET -1.192457 -6.581663 13.403625
					CHANNELS 3 Xrotation Yrotation Zrotation
					JOINT mixamorig:LeftToe_End
					{
						OFFSET -0.351332 -0.163919 5.937958
						CHANNELS 3 Xrotation Yrotation Zrotation
						End Site
						{
							OFFSET -0.351332 -0.163919 5.937958
						}
					}
				}
			}
		}
	}
	JOINT mixamorig:RightUpLeg
	{
		OFFSET -13.580900 -8.149200 -2.255300
		CHANNELS 3 Xrotation Yrotation Zrotation
		JOINT mixamorig:RightLeg
		{
			OFFSET -1.779582 -35.946686 -2.316831
			CHANNELS 3 Xrotation Yrotation Zrotation
			JOINT mixamorig:RightFoot
			{
				OFFSET 1.779588 -26.652205 -2.090130
				CHANNELS 3 Xrotation Yrotation Zrotation
				JOINT mixamorig:RightToeBase
				{
					OFFSET 1.192391 -6.582412 13.372187
					CHANNELS 3 Xrotation Yrotation Zrotation
					JOINT mixamorig:RightToe_End
					{
						OFFSET 0.351304 -0.164246 5.913598
						CHANNELS 3 Xrotation Yrotation Zrotation
						End Site
						{
							OFFSET 0.351304 -0.164246 5.913598
						}
					}
				}
			}
		}
	}
}
MOTION
Frames: 4
Frame Time: 0.016667
1.355806 76.406998 -0.654688 -2.396163 -5.335760 -1.161968 10.456176 3.093151 -2.669759 1.287661 0.463883 -0.136533 1.285362 0.467079 -0.136832 8.055012 -0.951943 1.103944 27.633982 -3.597780 4.786165 0.000001 0.000000 0.000000 0.485173 -1.309976 -4.394198 13.277883 -31.528013 -64.564802 0.000019 -35.227114 -0.000006 7.668322 2.119996 10.183076 -2.364272 7.304300 7.735325 5.630678 21.324861 5.195627 2.210968 15.135151 7.249005 0.000006 -0.000000 0.000001 0.112402 1.241586 -10.345959 0.182811 1.579228 -13.205900 0.136609 1.367514 -11.409122 0.000001 -0.000000 0.000000 0.026164 0.600951 -4.986268 0.246432 1.829154 -15.344891 0.136614 1.367526 -11.409140 -0.000001 0.000001 0.000000 0.061212 0.917930 -7.629521 0.215056 1.710720 -14.328709 0.136631 1.367516 -11.409128 -0.000002 0.000000 -0.000001 0.352568 4.628965 -4.382096 0.257450 -2.183035 -16.219013 0.136623 1.367504 -11.409143 -0.000000 0.000001 -0.000000 0.402370 0.220846 3.826717 4.945568 48.695700 64.226584 -0.000005 21.780447 0.000021 0.813523 6.004509 1.757158 -2.228954 -8.395544 -11.304590 9.932178 -19.275492 -2.235925 4.120799 -12.095001 -5.961012 -0.000002 0.000005 -0.000000 0.063996 -0.943182 7.763850 0.362233 -2.219079 18.539901 0.064016 -0.943191 7.763847 0.000000 0.000003 0.000002 0.063992 -0.943184 7.763850 0.362251 -2.219080 18.539906 0.063997 -0.943183 7.763845 0.000001 -0.000000 -0.000001 0.064000 -0.943186 7.763850 0.362243 -2.219079 18.539913 0.064004 -0.943181 7.763832 0.000002 -0.000000 -0.000002 0.064001 -0.943185 7.763844 0.362237 -2.219075 18.539908 0.064006 -0.943190 7.763842 0.000001 0.000001 -0.000000 -10.121227 16.093240 1.794104 26.228816 1.615128 -1.156508 -14.391140 -2.805096 4.035307 -0.909507 0.000003 -0.000001 -0.000000 -0.000000 -0.000000 -10.372488 -5.982576 0.899488 23.028913 -8.024082 0.706948 -10.319028 -0.430720 -0.524279 -1.532550 0.000005 -0.000000 -0.000000 0.000000 -0.000000 
1.427693 76.379570 -0.682972 -2.356730 -5.405074 -1.164079 10.573432 2.964353 -2.706047 1.342937 0.445992 -0.097744 1.341010 0.450286 -0.098308 7.812124 -0.832976 1.087477 27.007384 -2.941878 3.920408 0.000001 -0.000000 0.000000 0.481559 -1.261229 -4.212017 13.953616 -31.407484 -64.052578 0.000006 -37.111864 0.000010 9.218224 2.450367 8.954789 -2.364003 7.305221 7.735638 5.630635 21.328377 5.197028 2.211592 15.138819 7.250412 -0.000000 0.000002 0.000001 0.122133 1.293741 -10.785846 0.202077 1.659128 -13.887513 0.149082 1.427859 -11.920040 -0.000002 -0.000000 -0.000000 0.028066 0.622303 -5.163731 0.274814 1.929541 -16.210266 0.149095 1.427856 -11.920052 -0.000000 -0.000001 -0.000001 0.067500 0.963707 -8.012480 0.238316 1.799341 -15.088656 0.149088 1.427864 -11.920036 -0.000001 -0.000001 -0.000002 0.367222 4.649603 -4.563191 0.278487 -2.112205 -16.830365 0.149093 1.427856 -11.920048 -0.000002 -0.000001 -0.000001 0.423675 0.558696 3.645958 3.838013 49.329351 64.554351 0.000012 20.653582 0.000006 0.465911 5.937718 2.537792 -2.228483 -8.399794 -11.307936 9.934251 -19.279312 -2.235965 4.122940 -12.100909 -5.962537 -0.000001 0.000002 0.000002 0.067262 -0.966862 7.960048 0.380507 -2.272777 19.006031 0.067276 -0.966857 7.960048 -0.000002 0.000000 0.000000 0.067272 -0.966867 7.960046 0.380491 -2.272774 19.006029 0.067277 -0.966854 7.960052 -0.000001 0.000000 -0.000001 0.067270 -0.966869 7.960039 0.380502 -2.272773 19.006031 0.067289 -0.966867 7.960056 0.000002 -0.000002 -0.000001 0.067276 -0.966864 7.960042 0.380497 -2.272774 19.006028 0.067276 -0.966860 7.960049 -0.000001 -0.000000 0.000001 -10.113046 16.165251 1.591618 26.108583 1.105593 -0.876121 -14.342359 -2.086814 3.736595 -0.667586 -0.000004 0.000001 -0.000000 0.000001 -0.000000 -10.502303 -5.905991 0.810007 23.218601 -7.737570 0.890341 -10.410475 -0.791992 -0.645111 -1.077427 0.000009 -0.000000 0.000000 -0.000001 -0.000001 
1.502782 76.372917 -0.699884 -2.309765 -5.473379 -1.159631 10.725554 2.844993 -2.752088 1.351406 0.429978 -0.072926 1.349988 0.434957 -0.073878 7.580854 -0.716625 1.102873 26.431896 -2.286865 3.346544 -0.000001 0.000000 -0.000001 0.476133 -1.237183 -3.934192 14.470685 -31.037476 -63.864243 0.000004 -38.784802 0.000031 10.625707 2.569583 7.936436 -2.363372 7.307432 7.736347 5.630483 21.336705 5.200378 2.213068 15.147517 7.253739 -0.000005 -0.000001 -0.000004 0.130498 1.336896 -11.150180 0.218574 1.724442 -14.446303 0.159683 1.477159 -12.338057 -0.000000 -0.000001 -0.000001 0.029688 0.640034 -5.311367 0.299161 2.011319 -16.918155 0.159663 1.477150 -12.338064 -0.000003 0.000001 0.000002 0.072895 1.001225 -8.326725 0.258263 1.871722 -15.711361 0.159680 1.477158 -12.338065 -0.000006 -0.000000 -0.000000 0.379438 4.666726 -4.713756 0.296346 -2.054114 -17.333500 0.159668 1.477157 -12.338078 0.000003 -0.000001 -0.000000 0.441742 0.831660 3.443484 2.522317 49.279122 65.338382 0.000005 19.758882 -0.000003 0.518059 5.713828 3.230731 -2.227299 -8.410285 -11.316235 9.939361 -19.288674 -2.236003 4.128255 -12.115486 -5.966258 -0.000001 0.000002 0.000002 0.070706 -0.991205 8.161887 0.398677 -2.324820 19.459026 0.070718 -0.991213 8.161868 0.000001 -0.000000 0.000002 0.070716 -0.991206 8.161886 0.398671 -2.324819 19.459036 0.070723 -0.991214 8.161869 0.000003 0.000000 0.000001 0.070718 -0.991203 8.161885 0.398684 -2.324823 19.459038 0.070722 -0.991219 8.161858 0.000002 0.000001 -0.000000 0.070722 -0.991205 8.161886 0.398673 -2.324816 19.459030 0.070710 -0.991216 8.161863 0.000001 0.000000 0.000001 -10.112018 16.288092 1.336902 25.999506 0.787125 -0.511303 -14.301422 -1.573119 3.545366 -0.613115 0.000003 0.000001 -0.000000 0.000001 -0.000000 -10.588165 -5.881068 0.728614 23.232945 -7.300375 1.002739 -10.385089 -1.151523 -0.759973 -1.501269 0.000004 -0.000002 -0.000000 0.000000 -0.000000 
1.580702 76.380127 -0.708809 -2.258559 -5.534449 -1.150831 10.895111 2.748954 -2.816909 1.315029 0.417842 -0.058518 1.314122 0.423145 -0.059968 7.392584 -0.600987 1.118461 25.890997 -1.672005 3.046637 0.000000 -0.000000 0.000000 0.469403 -1.240892 -3.572453 14.959880 -30.412237 -63.818364 0.000017 -40.477064 0.000017 12.099435 2.680470 6.969871 -2.362416 7.310658 7.737412 5.630248 21.348887 5.205272 2.215195 15.160264 7.258646 0.000003 0.000003 0.000003 0.139658 1.382480 -11.535634 0.234592 1.785438 -14.969309 0.169655 1.522064 -12.719580 -0.000003 -0.000001 -0.000001 0.031557 0.659671 -5.474806 0.322143 2.085368 -17.561422 0.169667 1.522059 -12.719577 -0.000004 -0.000002 -0.000003 0.078189 1.036763 -8.624487 0.277522 1.938795 -16.290297 0.169656 1.522067 -12.719577 0.000001 0.000000 0.000001 0.392984 4.685559 -4.879750 0.314417 -1.997185 -17.827533 0.169646 1.522069 -12.719579 0.000001 -0.000000 0.000000 0.453543 1.012146 3.217934 1.307444 48.735288 66.222031 0.000005 19.242431 -0.000001 0.798008 5.208461 3.982048 -2.225491 -8.426283 -11.328839 9.947141 -19.302989 -2.236074 4.136345 -12.137756 -5.971952 -0.000005 0.000000 0.000002 0.075277 -1.022438 8.420902 0.420794 -2.386436 19.997119 0.075269 -1.022420 8.420908 -0.000001 0.000001 0.000001 0.075281 -1.022443 8.420903 0.420792 -2.386431 19.997117 0.075272 -1.022429 8.420917 0.000003 0.000003 0.000000 0.075284 -1.022444 8.420902 0.420795 -2.386435 19.997119 0.075266 -1.022421 8.420907 0.000003 0.000002 0.000001 0.075286 -1.022442 8.420904 0.420791 -2.386435 19.997110 0.075260 -1.022425 8.420908 -0.000000 -0.000000 -0.000001 -10.190407 16.335108 1.153166 26.034663 0.679420 -0.328408 -14.313459 -1.409276 3.719317 -0.798267 0.000001 0.000001 -0.000000 0.000001 -0.000000 -10.648904 -5.828056 0.658765 23.145030 -6.897414 1.060024 -10.287312 -1.435380 -0.828494 -2.129400 -0.000002 0.000001 -0.000000 -0.000001 -0.000001 
